<svg width="129" height="68" viewBox="0 0 129 68" fill="none" xmlns="http://www.w3.org/2000/svg">
<path d="M21.3936 24.54C19.4976 24.54 17.8536 24.18 16.4616 23.46C15.0696 22.74 13.9956 21.72 13.2396 20.4C12.4836 19.08 12.1056 17.52 12.1056 15.72V9.384C12.1056 7.584 12.4836 6.024 13.2396 4.704C13.9956 3.384 15.0696 2.364 16.4616 1.644C17.8536 0.923999 19.4976 0.563999 21.3936 0.563999C23.2776 0.563999 24.9156 0.929999 26.3076 1.662C27.6996 2.382 28.7736 3.402 29.5296 4.722C30.2976 6.042 30.6816 7.596 30.6816 9.384V15.72C30.6816 17.508 30.2976 19.062 29.5296 20.382C28.7736 21.702 27.6996 22.728 26.3076 23.46C24.9156 24.18 23.2776 24.54 21.3936 24.54ZM21.3936 21.516C23.4336 21.516 24.9876 21.012 26.0556 20.004C27.1236 18.984 27.6576 17.52 27.6576 15.612V9.492C27.6576 7.512 27.1176 6.036 26.0376 5.064C24.9576 4.08 23.4096 3.588 21.3936 3.588C19.3656 3.588 17.8116 4.092 16.7316 5.1C15.6636 6.108 15.1296 7.572 15.1296 9.492V15.612C15.1296 17.52 15.6636 18.984 16.7316 20.004C17.8116 21.012 19.3656 21.516 21.3936 21.516ZM35.5357 24.468C34.8397 24.468 34.3537 24.192 34.0777 23.64C33.8137 23.088 33.9097 22.53 34.3657 21.966L42.4837 11.508V13.668L34.3477 3.192C34.0597 2.832 33.9217 2.454 33.9337 2.058C33.9577 1.65 34.1017 1.308 34.3657 1.032C34.6417 0.743999 35.0197 0.599999 35.4997 0.599999C35.7637 0.599999 36.0037 0.689999 36.2197 0.869998C36.4357 1.038 36.6397 1.254 36.8317 1.518L44.4637 11.58H42.8077L50.4757 1.518C50.6917 1.23 50.9137 1.014 51.1417 0.869998C51.3817 0.713998 51.6757 0.635998 52.0237 0.635998C52.4197 0.635998 52.7377 0.767999 52.9777 1.032C53.2297 1.296 53.3617 1.626 53.3737 2.022C53.3977 2.406 53.2537 2.79 52.9417 3.174L44.8237 13.668V11.508L52.9417 21.948C53.2417 22.284 53.3797 22.65 53.3557 23.046C53.3437 23.43 53.1997 23.76 52.9237 24.036C52.6477 24.324 52.2637 24.468 51.7717 24.468C51.3757 24.468 50.9437 24.198 50.4757 23.658L42.8077 13.56H44.4637L36.8317 23.658C36.4237 24.198 35.9917 24.468 35.5357 24.468ZM65.9365 24.54C64.0405 24.54 62.3965 24.18 61.0045 23.46C59.6125 22.74 58.5385 21.72 57.7825 20.4C57.0265 19.08 56.6485 17.52 56.6485 15.72V9.384C56.6485 7.584 57.0265 6.024 57.7825 4.704C58.5385 3.384 59.6125 2.364 61.0045 1.644C62.3965 0.923999 64.0405 0.563999 65.9365 0.563999C67.8205 0.563999 69.4585 0.929999 70.8505 1.662C72.2425 2.382 73.3165 3.402 74.0725 4.722C74.8405 6.042 75.2245 7.596 75.2245 9.384V15.72C75.2245 17.508 74.8405 19.062 74.0725 20.382C73.3165 21.702 72.2425 22.728 70.8505 23.46C69.4585 24.18 67.8205 24.54 65.9365 24.54ZM65.9365 21.516C67.9765 21.516 69.5305 21.012 70.5985 20.004C71.6665 18.984 72.2005 17.52 72.2005 15.612V9.492C72.2005 7.512 71.6605 6.036 70.5805 5.064C69.5005 4.08 67.9525 3.588 65.9365 3.588C63.9085 3.588 62.3545 4.092 61.2745 5.1C60.2065 6.108 59.6725 7.572 59.6725 9.492V15.612C59.6725 17.52 60.2065 18.984 61.2745 20.004C62.3545 21.012 63.9085 21.516 65.9365 21.516ZM86.6306 24.468C86.1146 24.468 85.7066 24.318 85.4066 24.018C85.1186 23.73 84.9746 23.328 84.9746 22.812V3.912H79.7906C79.2506 3.912 78.8186 3.78 78.4946 3.516C78.1826 3.24 78.0266 2.868 78.0266 2.4C78.0266 1.932 78.1826 1.566 78.4946 1.302C78.8186 1.026 79.2506 0.887999 79.7906 0.887999H93.5066C94.6826 0.887999 95.2706 1.392 95.2706 2.4C95.2706 3.408 94.6826 3.912 93.5066 3.912H88.3946V22.812C88.3946 23.304 88.2326 23.7 87.9086 24C87.5846 24.312 87.1586 24.468 86.6306 24.468ZM98.1698 24.792C97.7618 24.792 97.4078 24.66 97.1078 24.396C96.8078 24.144 96.6578 23.844 96.6578 23.496C96.6578 23.136 96.6998 22.836 96.7838 22.596L105.37 0.887999H108.61L117.196 22.596C117.28 22.836 117.322 23.136 117.322 23.496C117.322 23.844 117.172 24.144 116.872 24.396C116.572 24.66 116.218 24.792 115.81 24.792C115.066 24.792 114.556 24.408 114.28 23.64L111.85 17.412H102.13L99.6998 23.658C99.3758 24.414 98.8658 24.792 98.1698 24.792ZM103.354 14.388H110.626L106.954 5.424L103.354 14.388ZM2.36772 67.468C1.35972 67.468 0.855719 66.892 0.855719 65.74V43.888H19.0717V65.74C19.0717 66.892 18.5677 67.468 17.5597 67.468C16.5517 67.468 16.0477 66.892 16.0477 65.74V46.912H3.87972V65.74C3.87972 66.892 3.37572 67.468 2.36772 67.468ZM33.294 67.54C31.398 67.54 29.754 67.18 28.362 66.46C26.97 65.74 25.896 64.72 25.14 63.4C24.384 62.08 24.006 60.52 24.006 58.72V52.384C24.006 50.584 24.384 49.024 25.14 47.704C25.896 46.384 26.97 45.364 28.362 44.644C29.754 43.924 31.398 43.564 33.294 43.564C35.178 43.564 36.816 43.93 38.208 44.662C39.6 45.382 40.674 46.402 41.43 47.722C42.198 49.042 42.582 50.596 42.582 52.384V58.72C42.582 60.508 42.198 62.062 41.43 63.382C40.674 64.702 39.6 65.728 38.208 66.46C36.816 67.18 35.178 67.54 33.294 67.54ZM33.294 64.516C35.334 64.516 36.888 64.012 37.956 63.004C39.024 61.984 39.558 60.52 39.558 58.612V52.492C39.558 50.512 39.018 49.036 37.938 48.064C36.858 47.08 35.31 46.588 33.294 46.588C31.266 46.588 29.712 47.092 28.632 48.1C27.564 49.108 27.03 50.572 27.03 52.492V58.612C27.03 60.52 27.564 61.984 28.632 63.004C29.712 64.012 31.266 64.516 33.294 64.516ZM48.9121 67.216C47.9521 67.216 47.4721 66.616 47.4721 65.416V45.688C47.4721 44.488 47.9521 43.888 48.9121 43.888H64.2481C65.4481 43.888 66.0481 44.416 66.0481 45.472C66.0481 46.432 65.4481 46.912 64.2481 46.912H50.4961V52.6H59.8201C61.1641 52.6 61.8361 53.128 61.8361 54.184C61.8361 55.144 61.1641 55.624 59.8201 55.624H50.4961V64.192H64.2481C65.4481 64.192 66.0481 64.72 66.0481 65.776C66.0481 66.736 65.4481 67.216 64.2481 67.216H48.9121ZM79.2148 67.216C76.8988 67.216 75.0628 67 73.7068 66.568C72.3508 66.136 71.3728 65.422 70.7728 64.426C70.1848 63.43 69.8908 62.08 69.8908 60.376V50.728C69.8908 49.048 70.1728 47.71 70.7368 46.714C71.3008 45.718 72.2188 44.998 73.4908 44.554C74.7628 44.11 76.4548 43.888 78.5668 43.888H84.2908C85.2388 43.888 86.0188 44.056 86.6308 44.392C87.2548 44.716 87.7168 45.19 88.0168 45.814C88.3168 46.438 88.4668 47.188 88.4668 48.064C88.4668 49.576 87.9628 50.332 86.9548 50.332C86.4148 50.332 86.0368 50.164 85.8208 49.828C85.6048 49.48 85.4788 49.012 85.4428 48.424C85.4068 47.86 85.3228 47.47 85.1908 47.254C85.0708 47.026 84.6868 46.912 84.0388 46.912H78.5668C76.9828 46.912 75.7828 47.008 74.9668 47.2C74.1628 47.392 73.6168 47.77 73.3288 48.334C73.0528 48.886 72.9148 49.708 72.9148 50.8V60.304C72.9148 61.408 73.0648 62.242 73.3648 62.806C73.6648 63.358 74.2648 63.73 75.1648 63.922C76.0648 64.102 77.4148 64.192 79.2148 64.192H84.0388C84.6868 64.192 85.0708 64.078 85.1908 63.85C85.3228 63.622 85.4068 63.232 85.4428 62.68C85.5028 61.996 85.6468 61.51 85.8748 61.222C86.1148 60.922 86.4748 60.772 86.9548 60.772C87.4828 60.784 87.8668 60.976 88.1068 61.348C88.3468 61.708 88.4668 62.284 88.4668 63.076C88.4668 63.952 88.3168 64.702 88.0168 65.326C87.7168 65.938 87.2548 66.406 86.6308 66.73C86.0188 67.054 85.2388 67.216 84.2908 67.216H79.2148ZM99.5857 67.468C99.0697 67.468 98.6617 67.318 98.3617 67.018C98.0737 66.73 97.9297 66.328 97.9297 65.812V46.912H92.7457C92.2057 46.912 91.7737 46.78 91.4497 46.516C91.1377 46.24 90.9817 45.868 90.9817 45.4C90.9817 44.932 91.1377 44.566 91.4497 44.302C91.7737 44.026 92.2057 43.888 92.7457 43.888H106.462C107.638 43.888 108.226 44.392 108.226 45.4C108.226 46.408 107.638 46.912 106.462 46.912H101.35V65.812C101.35 66.304 101.188 66.7 100.864 67C100.54 67.312 100.114 67.468 99.5857 67.468ZM113.213 67.468C112.253 67.468 111.773 66.88 111.773 65.704V45.544C111.773 44.44 112.277 43.888 113.285 43.888C114.293 43.888 114.797 44.428 114.797 45.508V49.648H120.089C121.769 49.648 123.263 50.038 124.571 50.818C125.891 51.586 126.929 52.642 127.685 53.986C128.453 55.33 128.837 56.86 128.837 58.576C128.837 60.28 128.459 61.804 127.703 63.148C126.947 64.48 125.909 65.536 124.589 66.316C123.269 67.084 121.769 67.468 120.089 67.468H113.213ZM114.797 64.444H120.089C121.241 64.444 122.243 64.204 123.095 63.724C123.959 63.232 124.625 62.548 125.093 61.672C125.573 60.784 125.813 59.752 125.813 58.576C125.813 57.388 125.573 56.356 125.093 55.48C124.625 54.592 123.959 53.902 123.095 53.41C122.243 52.918 121.241 52.672 120.089 52.672H114.797V64.444Z" fill="black"/>
</svg>
