<svg id="Слой_1" data-name="Слой 1" xmlns="http://www.w3.org/2000/svg" viewBox="0 0 668.34 671.35"><defs><style>.cls-1{fill:#630;}.cls-1,.cls-2,.cls-3,.cls-4,.cls-5,.cls-6,.cls-7{stroke:#000;stroke-miterlimit:10;stroke-width:2px;}.cls-2{fill:#ff4a1c;}.cls-3{fill:#f7e1d7;}.cls-4{fill:none;}.cls-6{fill:#fff;}.cls-7{fill:#ffd56e;}</style></defs><path class="cls-1" d="M349.31,536.57s131.1,39.55,170.19,1.93c43.61-42,43.29-181.18,29-240-9-36.84-38.48-106.28-69.19-132.93S385,112,350,112s-98.87,26.92-129.5,53.5-61.05,93.16-70,130c-14.29,58.82-12.61,201,31,243,39.09,37.62,169-2,169-2" transform="translate(-31.78 -66.12)"/><path class="cls-2" d="M457.25,546.53l19.25,129-250-16L220,700l22.75-153.44-22.25,153,304.69,36.82a20,20,0,0,0,22.16-23l-32.7-205.91a30,30,0,0,0-26.86-25.17L382.5,472.5l-14.09,7.26a40,40,0,0,1-37.56-.49L318.5,472.5l-105.32,9.76a30,30,0,0,0-26.85,25.14l-35,205.93a19.88,19.88,0,0,0,20.62,23h353.2" transform="translate(-31.78 -66.12)"/><path class="cls-3" d="M382.5,472.5l-13.95,7.19a40.33,40.33,0,0,1-37.84-.49l-12.21-6.7v-64h64Z" transform="translate(-31.78 -66.12)"/><path class="cls-3" d="M480,297.5A130,130,0,0,1,220.06,299c21.79-16.35,49.72-37.78,60.94-48.48,21.35-20.36,71.5-53,71.5-53s47.15,32.64,68.5,53C431.88,260.88,458.5,281.37,480,297.5Z" transform="translate(-31.78 -66.12)"/><path class="cls-4" d="M220.06,299C203.83,311.15,191,320.5,191,320.5" transform="translate(-31.78 -66.12)"/><path class="cls-4" d="M511,320.5s-13.88-10.11-31-23" transform="translate(-31.78 -66.12)"/><circle class="cls-5" cx="281.72" cy="229.38" r="7.5"/><circle class="cls-5" cx="358.72" cy="229.38" r="7.5"/><path class="cls-4" d="M297,285.5h0a26.67,26.67,0,0,1,32,0h0" transform="translate(-31.78 -66.12)"/><path class="cls-4" d="M374.89,279.5h0a26.67,26.67,0,0,0,32,0h0" transform="translate(-31.78 -66.12)"/><path class="cls-4" d="M352.29,348.45l-2.5,1.7a4,4,0,0,0,0,6.7l2.5,1.7-2.5,1.7a4,4,0,0,0,0,6.7l2.5,1.7" transform="translate(-31.78 -66.12)"/><path class="cls-6" d="M167.83,156.78c-9.64-4.12-17.35-4.33-27.39,3.05-11.51,8.47-14.8,17.74-27.49,25-17.29,9.88-32.95-15.6-50.73-9C51.94,179.67,38.7,195.35,33.9,234.1l3.16,5.47L112,227.29l63.39-51.17Z" transform="translate(-31.78 -66.12)"/><path class="cls-6" d="M171.79,168c-9.64-4.12-17.35-4.33-27.39,3.05-11.51,8.47-14.8,17.74-27.49,25-17.29,9.88-32.95-15.59-50.73-9-10.28,3.83-23,13-27.76,51.77l8,4.46,69.46-4.78,63.38-51.17Z" transform="translate(-31.78 -66.12)"/><path class="cls-6" d="M175.08,178.8c-9.64-4.12-17.35-4.33-27.39,3.06-11.51,8.47-14.8,17.73-27.49,25-17.29,9.88-32.95-15.6-50.73-9C59.19,201.7,48,208.23,43.16,247l10,1.52,66.07.82L172,201.78Z" transform="translate(-31.78 -66.12)"/><path class="cls-3" d="M168.36,156.75a.73.73,0,0,1,1.23.06c22.9,37.63,10.18,87.58-27.89,109.56s-87.68,8-108.83-30.63a.74.74,0,0,1,.57-1.09A188.43,188.43,0,0,0,108,211.13,188.43,188.43,0,0,0,168.36,156.75Z" transform="translate(-31.78 -66.12)"/><rect class="cls-2" x="80.86" y="67.05" width="10.55" height="63.31" rx="2.5" transform="translate(-50.53 -45.91) rotate(-12.08)"/><path class="cls-4" d="M93.15,130s-8.23,41.47-6,52.54c1.77,8.89,13.09,13.35,18.94,15.08a2.11,2.11,0,0,0,2.64-2.53L92.76,129.67" transform="translate(-31.78 -66.12)"/><path class="cls-4" d="M92.69,130.26s26.64,32.83,29.86,43.65c2.6,8.75-5.81,18.06-10.33,22.29a2.1,2.1,0,0,1-3.49-1l-15.86-65.4" transform="translate(-31.78 -66.12)"/><path class="cls-6" d="M556.09,505.86,662.21,483.8l37.45-7.8" transform="translate(-31.78 -66.12)"/><path class="cls-4" d="M556.09,505.86,662.21,483.8l37.45-7.8" transform="translate(-31.78 -66.12)"/><path class="cls-4" d="M557.41,512,700,494.79" transform="translate(-31.78 -66.12)"/><path class="cls-7" d="M596.81,699.9C582.63,685.39,541.74,664.49,547,646c4.75-16.59,22.81-18.21,24.89-33.18,3-21.38-32.1-30.17-35.25-58.06-2.76-24.26,19.82-52.89,37.32-51.84,12.44.75,15.84,18.48,31.1,49.77,13.69,28,16.36,40,12.45,53.91-6.35,22.52-22,22.81-24.89,43.55-2.36,17.08,13.46,20.34,14.52,41.47" transform="translate(-31.78 -66.12)"/><path class="cls-4" d="M596.81,699.9C582.63,685.39,541.74,664.49,547,646c4.75-16.59,22.81-18.21,24.89-33.18,3-21.38-32.1-30.17-35.25-58.06-2.76-24.26,19.82-52.89,37.32-51.84,12.44.75,15.84,18.48,31.1,49.77,13.69,28,16.36,40,12.45,53.91-6.35,22.52-22,22.81-24.89,43.55-2.36,17.08,13.46,20.34,14.52,41.47" transform="translate(-31.78 -66.12)"/><path class="cls-7" d="M623.77,735.15c-14.19-14.51-62-75-56.74-93.54,4.75-16.58,22.81-18.2,24.89-33.17,3-21.38-32.1-30.17-35.25-58.06-2.74-24.26,19.82-52.9,37.32-51.84,12.44.77,0,14.51,15.26,45.85,13.69,28,12.21,46.22,8.3,60.13-6.35,22.52-1.29,27-4.15,47.69C611,669.3,602,662.18,603,683.31" transform="translate(-31.78 -66.12)"/><path class="cls-4" d="M623.77,735.15c-14.19-14.51-62-75-56.74-93.54,4.75-16.58,22.81-18.2,24.89-33.17,3-21.38-32.1-30.17-35.25-58.06-2.74-24.26,19.82-52.9,37.32-51.84,12.44.77,0,14.51,15.26,45.85,13.69,28,12.21,46.22,8.3,60.13-6.35,22.52-1.29,27-4.15,47.69C611,669.3,602,662.18,603,683.31" transform="translate(-31.78 -66.12)"/><path class="cls-7" d="M623.77,733.08c-14.19-14.52-43.11-74.46-37.8-93,4.74-16.59,22.8-18.2,24.88-33.18,3-21.37-32.1-30.17-35.25-58.05-2.76-24.29,19.82-52.92,37.32-51.84,12.44.74-29.3,26.41-14,57.7,13.69,28,35,37.93,31.11,51.84-6.35,22.52-21.22,17.19-27,37.33-4.15,14.51,4.15,35.25,6.22,39.39,6.49,13,14.52,26.2,14.52,53.16" transform="translate(-31.78 -66.12)"/><path class="cls-4" d="M623.77,733.08c-14.19-14.52-43.11-74.46-37.8-93,4.74-16.59,22.8-18.2,24.88-33.18,3-21.37-32.1-30.17-35.25-58.05-2.76-24.29,19.82-52.92,37.32-51.84,12.44.74-29.3,26.41-14,57.7,13.69,28,35,37.93,31.11,51.84-6.35,22.52-21.22,17.19-27,37.33-4.15,14.51,4.15,35.25,6.22,39.39,6.49,13,14.52,26.2,14.52,53.16" transform="translate(-31.78 -66.12)"/></svg>